<svg width="1079" height="1011" viewBox="0 0 1079 1011" fill="none" xmlns="http://www.w3.org/2000/svg">
<path fill-rule="evenodd" clip-rule="evenodd" d="M590.364 810.123C590.364 810.123 623.098 803.587 615.396 824.401C607.73 845.218 588.403 881.322 588.403 881.322L556.987 905.363L527.213 916.656L511.808 940.276L510.631 971.916C510.631 971.916 512.094 1002.56 514.59 1000.18C517.05 997.808 539.051 1003.85 539.051 1003.85L571.073 980.374L600.206 944.241L622.385 916.061L647.596 871.388L682.826 815.375L686.962 798.406L681.65 782.263L671.023 767.354L658.365 752.991L655.405 735.572L680.366 706.418L725.759 670.67L747.653 656.881L770.475 633.475L805.563 604.52L831.7 570.965L854.664 538.602L874.134 524.018L886.614 538.22L879.554 566.366L854.343 615.421L828.954 646.354L805.313 670.064L775.324 691.73L748.259 713.806L722.122 725.563L701.333 740.992L702.403 759.188L719.448 766.235L752.217 751.383L847.283 672.995L894.316 630.544L952.44 541.797L1003.89 450.397L1038.48 396.949L1052.28 360.648L1042.69 347.562L1020.83 342.926L1007.53 336.148L1035.67 272.629L1056.88 254.59L1073 241.924L1076.64 224.116L1073.21 203.348L1064.55 193.913L1023.97 198.085L980.824 196.277L912.217 175.973L846.712 137.487L799.536 111.36L765.625 90.2506L705.291 68.5196L658.115 50.0393L614.932 52.7572L559.805 57.5486L530.636 66.1787L497.616 122.09L479.11 184.161L474.545 248.157L487.347 322.045L504.748 383.502L522.363 433.723L547.11 483.599L573.283 536.409L591.576 592.842L604.449 644.393L606.054 687.768L605.804 736.503L599.885 783.09L590.364 810.123Z" fill="black"/>
<path fill-rule="evenodd" clip-rule="evenodd" d="M537.554 855.519C539.433 856.482 541.398 857.067 543.285 857.067C547.635 857.067 553.768 853.458 560.023 847.884C570.438 838.599 581.956 824.197 586.87 819.853C590.607 816.548 594.993 813.52 599.304 812.65C602.941 811.916 606.389 813.139 609.049 817.564C611.399 821.476 611.207 826.065 610.03 830.672C608.04 838.46 603.184 846.301 599.814 852.042C594.597 860.932 588.136 871.686 580.469 880.993C575.52 887.002 570.075 892.408 564.113 896.227C561.927 897.628 559.666 898.562 557.338 899.279C553.476 900.466 549.436 901.065 545.239 901.935C536.702 903.708 529.271 907.448 523.38 912.615C517.108 918.114 512.576 925.228 510.315 933.329C507.801 942.329 506.417 951.971 505.929 961.667C505.44 971.302 505.832 980.987 506.849 990.122C507.348 994.573 508.543 1000.33 511.491 1004.49C513.745 1007.66 516.933 1010.01 521.426 1010.63C528.051 1011.55 536.41 1008.39 544.957 1002.92C560.693 992.865 577.527 975.289 585.112 968.046C590.532 962.872 595.777 957.513 600.752 951.95C605.79 946.323 610.547 940.489 614.929 934.438C616.595 932.142 618.167 928.808 619.872 925.63C620.325 925.317 620.713 924.896 621.006 924.386C621.894 922.821 622.871 921.184 623.93 919.479L624.276 919.159C624.978 918.549 625.409 917.739 625.556 916.887C638.407 896.737 660.501 868.488 675.638 842.803C684.381 827.969 690.796 813.916 692.173 802.637C693.378 792.789 688.443 784.388 681.443 776.571C672.996 767.147 661.282 758.699 658.005 748.223C656.782 744.307 656.949 740.093 659.214 735.386C662.373 728.807 668.938 721.746 676.897 714.65C694.002 699.403 717.54 684.273 730.652 674.353C740.993 666.522 751.205 658.524 761.182 650.294C771.227 642.01 781.034 633.492 790.512 624.684C801.273 614.675 810.455 604.098 818.885 593.133C831.615 576.57 842.612 559.122 854.804 541.447C857.396 537.688 862.545 531.394 868.276 528.905C871.121 527.668 874.148 527.572 876.855 530.154C882.553 535.584 881.819 545.112 879.237 555.154C875.211 570.815 865.837 587.728 861.18 595.615C848.239 617.542 831.194 638.038 812.11 656.919C793.286 675.54 772.476 692.592 751.626 707.886C740.907 715.749 722.704 719.938 710.437 726.796C706.354 729.078 702.874 731.649 700.335 734.623C692.594 743.683 693.777 754.762 699.932 762.326C705.584 769.279 715.533 773.28 726.626 769.65C734.827 766.965 743.25 762.283 751.576 756.574C769.427 744.336 786.882 727.33 800.803 716.287L846.367 679.334C850.4 675.843 855.15 669.917 860.085 665.442L860.605 664.989L860.673 664.942L864.275 662.165C864.81 661.822 865.352 661.519 865.894 661.266C866.757 660.859 867.398 660.178 867.766 659.372C884.932 645.448 899.42 630.208 912.25 613.969C934.486 585.82 951.723 554.665 969.335 522.155L1028 416.681C1033.9 405.72 1043.9 394.195 1050.11 382.125C1053.14 376.241 1055.3 370.225 1055.89 364.103C1056.52 357.542 1054.23 353.241 1050.46 350.214C1043.9 344.954 1031.27 344.441 1022.19 341.813C1017.62 340.493 1014.11 338.489 1015.45 332.966C1017.12 325.998 1023.17 309.399 1029.36 294.715C1033.72 284.378 1038.12 274.992 1041.13 270.753C1046.82 262.733 1063.1 257.691 1071.6 250.356C1074.95 247.464 1077.27 244.237 1078.1 240.65C1078.44 239.216 1078.59 237.687 1078.61 236.096C1078.67 231.35 1077.34 225.948 1077.73 221.441C1078.11 216.944 1079.03 211.467 1078.74 206.328C1078.5 202.253 1077.51 198.384 1075.27 195.142C1073.98 193.285 1072.21 192.147 1070.17 191.545C1066.96 190.603 1062.86 191.227 1059.79 191.751C1037.29 195.588 1015.41 196.209 993.804 193.923C972.181 191.634 950.832 186.435 929.405 178.64C868.664 156.546 818.425 114.579 762.103 84.6263C737.687 71.6412 712.149 60.8852 684.185 54.8376C663.026 50.2604 639.548 47.0544 616.049 46.3234C592.44 45.5885 568.802 47.3553 547.432 52.7023C545.317 53.2322 541.737 54.8315 537.761 56.8708C531.927 59.8611 525.124 63.9686 521.583 65.9851C521.533 65.1193 521.194 64.2656 520.559 63.581C509.537 51.6843 495.502 42.095 480.084 34.2655C457.993 23.0513 433.054 15.4428 410.279 9.67579C317.36 -13.8527 231.648 7.2421 165.733 54.4086C96.2658 104.121 48.8133 182.837 38.155 268.845C26.9757 359.061 59.9466 445.989 115.402 524.651C192.919 634.608 314.372 728.414 419.147 792.428C441.537 806.107 464.03 820.092 487.372 832.644C502.919 841.006 518.844 848.733 535.361 855.319C536.085 855.608 536.845 855.665 537.554 855.519ZM859.735 655.867C877.828 641.636 892.905 625.946 906.163 609.162C928.128 581.359 945.12 550.572 962.517 518.461L1021.17 413.008C1027.05 402.083 1037.02 390.604 1043.22 378.573C1045.78 373.602 1047.67 368.539 1048.17 363.365C1048.87 356.001 1042.89 354.079 1036.38 352.61C1027.69 350.652 1017.71 349.733 1012.4 345.735C1008.38 342.715 1006.18 338.3 1007.91 331.151C1009.63 323.969 1015.83 306.843 1022.22 291.702C1026.85 280.712 1031.61 270.77 1034.81 266.267C1040.78 257.844 1057.61 252.185 1066.53 244.487C1068.51 242.779 1070.06 240.999 1070.56 238.885L1070 220.781C1070.36 216.612 1071.27 211.542 1070.99 206.778C1070.84 204.164 1070.33 201.643 1068.89 199.561C1068.37 198.808 1067.42 198.812 1066.5 198.783C1064.65 198.726 1062.69 199.126 1061.09 199.397C1037.87 203.355 1015.29 203.996 992.987 201.636C970.751 199.282 948.789 193.944 926.755 185.928C865.672 163.71 815.102 121.597 758.462 91.4727C734.67 78.8211 709.795 68.3104 682.549 62.4175C661.82 57.9341 638.828 54.7908 615.807 54.0745C592.928 53.3627 570.025 55.0444 549.314 60.2255C547.553 60.6666 544.611 62.0744 541.298 63.7718C538.028 65.4492 534.448 67.3733 531.182 69.1484C531.25 69.3648 531.296 69.5912 531.325 69.8252C531.553 71.8046 530.244 73.6103 528.347 74.0464C528.105 74.2557 526.939 75.2927 526.172 76.2151C522.938 80.1012 518.791 86.9583 514.601 94.5393C506.182 109.78 497.663 127.933 496.148 131.76C484.02 162.447 479.363 199.272 479.948 236.299C480.469 269.316 485.168 302.496 492.528 331.679C493.006 332.178 493.356 332.809 493.512 333.533C512.943 424.034 569.715 506.298 597.097 594.246C609.149 632.953 615.564 672.741 610.889 714.761C607.684 743.541 609.035 766.359 602.256 788.285C600.431 794.197 598.027 800.049 594.797 805.929C597.211 805.062 599.632 804.602 601.964 804.684C607.031 804.855 611.902 807.255 615.696 813.574C619.112 819.261 619.255 825.894 617.543 832.591C615.372 841.091 610.18 849.699 606.503 855.965C601.101 865.172 594.394 876.286 586.453 885.925C580.972 892.579 574.903 898.527 568.295 902.756C565.493 904.553 562.601 905.772 559.616 906.692C555.526 907.948 551.254 908.611 546.811 909.531C539.662 911.011 533.425 914.12 528.493 918.445C523.355 922.953 519.636 928.779 517.782 935.419C515.417 943.877 514.134 952.945 513.67 962.059C513.207 971.27 513.585 980.53 514.558 989.263C514.872 992.091 515.453 995.642 516.961 998.577C518.07 1000.74 519.732 1002.56 522.492 1002.95C529.246 1003.88 537.95 998.773 546.729 992.269C560.14 982.331 573.334 968.57 579.76 962.437C585.03 957.402 590.136 952.189 594.971 946.78C599.832 941.349 604.421 935.725 608.65 929.888C610.743 926.996 612.651 922.357 614.933 918.627C615.81 917.194 616.741 915.874 617.736 914.762C630.405 894.494 653.366 865.318 668.959 838.866C677.068 825.109 683.198 812.158 684.474 801.696C685.644 792.125 678.719 784.644 671.355 777.202C662.89 768.648 653.64 760.243 650.606 750.537C648.841 744.896 648.962 738.812 652.225 732.023C655.733 724.717 662.89 716.747 671.737 708.859C688.999 693.473 712.737 678.182 725.97 668.166C736.229 660.403 746.352 652.473 756.247 644.31C766.171 636.123 775.867 627.708 785.231 619.004C795.664 609.301 804.565 599.038 812.734 588.405C825.386 571.949 836.304 554.608 848.421 537.043C851.612 532.418 858.131 524.858 865.184 521.795C870.843 519.331 876.823 519.406 882.207 524.541C888.177 530.232 889.749 539.136 888.333 549.224C885.77 567.531 873.535 589.935 867.858 599.555C854.59 622.038 837.135 643.07 817.566 662.432C798.471 681.32 777.364 698.625 756.212 714.14C745.272 722.167 726.744 726.564 714.22 733.563C711.011 735.361 708.23 737.322 706.233 739.658C701.266 745.473 702 752.58 705.948 757.433C709.806 762.179 716.638 764.758 724.212 762.279C734.15 759.027 744.395 752.534 754.386 744.985C769.534 733.546 784.057 719.671 795.982 710.214L841.293 673.468C845.287 670.013 849.983 664.133 854.875 659.697C856.476 658.242 858.106 656.937 859.735 655.867ZM516.066 69.7246C515.628 69.521 515.221 69.2289 514.868 68.8513C504.449 57.6043 491.152 48.5824 476.571 41.1804C454.994 30.2265 430.622 22.827 408.374 17.1933C317.898 -5.7169 234.429 14.7874 170.247 60.7155C102.513 109.188 56.2435 185.935 45.8512 269.797C34.9055 358.13 67.4438 443.165 121.74 520.183C198.656 629.288 319.228 722.295 423.191 785.81C445.459 799.417 467.828 813.328 491.045 825.815C504.085 832.826 517.393 839.387 531.107 845.185C532.48 843.991 534.555 843.901 536.039 845.067C536.816 845.681 537.733 846.43 538.731 847.139C539.54 847.047 540.378 847.207 541.113 847.642C541.484 847.56 542.721 847.26 543.556 846.879C546.858 845.385 550.962 842.45 554.959 839.276C562.176 833.543 568.998 826.96 570.257 825.666C583.579 811.973 590.778 799.161 594.847 785.992C601.493 764.501 600.042 742.118 603.18 713.901C607.737 672.983 601.429 634.244 589.694 596.549C563.225 511.543 509.441 431.8 488.164 344.862C488 344.587 487.875 344.291 487.782 343.974C478.707 311.867 472.788 274.04 472.196 236.421C471.593 198.337 476.461 160.472 488.938 128.91C490.699 124.457 501.703 101.047 511.324 84.612C513.574 80.768 515.87 77.3512 518.031 74.5467C516.883 73.9968 516.031 72.8918 515.86 71.5357C515.781 70.902 515.86 70.2848 516.066 69.7246Z" fill="black"/>
<path fill-rule="evenodd" clip-rule="evenodd" d="M232.231 716.405C229.499 696.114 225.32 660.743 219.201 638.451C215.728 625.797 210.797 617.265 206.179 615.65C196.205 612.164 181.04 610.474 163.97 609.868C130.232 608.678 88.8947 611.583 67.0461 611.742L19.896 611.937L6.35789 611.476C4.78892 610.669 2.81415 610.919 1.493 612.226C-0.779864 614.476 -0.0827387 616.438 1.11681 617.959C1.64491 618.63 3.70168 619.555 4.20376 619.665L19.896 620.33L67.1063 620.132C88.8747 619.976 130.06 617.067 163.674 618.254C179.735 618.822 194.023 620.288 203.408 623.569C204.938 624.104 205.926 626.355 207.231 629.283C209.673 634.745 211.824 642.644 213.76 651.65C220.025 680.765 223.876 721.104 226.055 731.371C226.194 732.026 228.205 749.133 229.375 755.801C230.248 760.778 234.495 761.926 234.93 761.849C235.462 761.751 238.4 759.977 238.931 755.56C239.758 748.672 240.5 731.005 240.507 730.295C240.789 687.358 241.68 644.23 243.431 601.131C245.182 558.068 247.796 515.031 251.522 472.247L257.905 400.153C258.051 398.36 258.636 393.888 259.388 388.874C259.873 391.647 260.201 393.638 260.23 393.842C264.755 429.852 267.105 515.388 271.127 570.392C272.603 590.618 274.333 606.781 276.437 615.053C276.747 616.276 281.96 621.05 284.528 615.443C284.806 614.83 285.33 613.494 286.011 611.639C289.049 603.372 295.567 584.096 297.825 575.515L311.571 518.414C311.838 526.771 311.799 535.121 311.624 543.469C311.197 563.782 309.952 584.083 310.148 604.417C310.326 623.239 315.864 629.708 325.289 632.037C334.474 634.307 348.984 631.547 369.241 632.763L413.6 635.166L484.065 638.827C486.372 639.028 488.408 637.316 488.608 635.01C488.808 632.701 487.096 630.668 484.789 630.467L413.928 626.783L369.744 624.387C350.182 623.213 336.172 626.083 327.3 623.89C320.888 622.305 318.66 617.142 318.535 604.339C318.342 584.09 319.587 563.873 320.011 543.644C320.197 534.881 320.232 526.116 319.936 517.343C319.847 514.759 320.689 504.644 319.462 498.761C318.76 495.398 317.194 493.099 315.472 492.104C315.155 491.922 310.173 491.468 308.736 496.161C307.431 500.422 304.643 511.289 304.478 512.035L289.709 573.382C288.25 578.937 284.963 589.064 282.039 597.629C281.104 589.908 280.27 580.422 279.493 569.779C275.463 514.639 273.092 428.892 268.553 392.795C268.474 392.179 265.736 375.854 264.202 369.514C263.382 366.122 261.549 364.487 261.139 364.289C259.756 363.625 257.21 363.106 255.448 366.154C255.124 366.718 254.617 368.097 254.157 370.091C252.485 377.333 249.882 395.311 249.543 399.469L243.16 471.517C239.423 514.431 236.806 557.598 235.048 600.791C233.479 639.359 232.602 677.95 232.231 716.405ZM8.42858 613.902C8.90925 615.361 8.56301 617.035 7.39769 618.186C9.01694 616.584 9.0148 615.134 8.42858 613.902Z" fill="black"/>
</svg>
