<svg width="1070" height="1011" viewBox="0 0 1070 1011" fill="none" xmlns="http://www.w3.org/2000/svg">
<path fill-rule="evenodd" clip-rule="evenodd" d="M583.609 810.966C583.609 810.966 616.344 804.43 608.642 825.243C600.975 846.061 581.648 882.165 581.648 882.165L550.233 906.206L520.458 917.499L505.054 941.119L503.877 972.759C503.877 972.759 505.339 1003.4 507.835 1001.03C510.296 998.65 532.297 1004.69 532.297 1004.69L564.318 981.217L593.451 945.084L615.63 916.903L640.841 872.231L676.071 816.218L680.208 799.248L674.895 783.106L664.269 768.197L651.61 753.834L648.65 736.415L673.611 707.26L719.004 671.513L740.898 657.724L763.72 634.317L798.808 605.363L824.945 571.808L847.91 539.445L867.379 524.86L879.859 539.063L872.799 567.208L847.589 616.264L822.2 647.197L798.558 670.907L768.57 692.573L741.505 714.649L715.367 726.405L694.578 741.835L695.648 760.031L712.693 767.077L745.463 752.226L840.528 673.838L887.561 631.386L945.685 542.64L997.14 451.24L1031.73 397.792L1045.53 361.491L1035.94 348.405L1014.08 343.769L1000.78 336.99L1028.91 273.472L1050.13 255.432L1066.25 242.766L1069.88 224.959L1066.46 204.191L1057.79 194.756L1017.22 198.928L974.069 197.12L905.462 176.816L839.957 138.33L792.781 112.203L758.87 91.0933L698.536 69.3623L651.36 50.882L608.178 53.5998L553.05 58.3913L523.881 67.0213L490.861 122.933L472.355 185.003L467.791 249L480.592 322.887L497.993 384.345L515.609 434.566L540.356 484.441L566.529 537.252L584.821 593.685L597.694 645.236L599.299 688.611L599.049 737.345L593.13 783.933L583.609 810.966Z" fill="#D92626"/>
<path fill-rule="evenodd" clip-rule="evenodd" d="M528.555 855.519C530.434 856.482 532.399 857.066 534.285 857.066C538.635 857.066 544.769 853.458 551.023 847.884C561.439 838.599 572.957 824.196 577.87 819.853C581.607 816.548 585.993 813.52 590.305 812.65C593.942 811.916 597.39 813.139 600.05 817.564C602.4 821.476 602.207 826.065 601.031 830.672C599.041 838.46 594.184 846.301 590.814 852.042C585.598 860.932 579.136 871.686 571.47 880.993C566.52 887.002 561.075 892.407 555.113 896.227C552.927 897.628 550.667 898.562 548.338 899.279C544.476 900.466 540.436 901.065 536.239 901.935C527.703 903.708 520.271 907.448 514.381 912.615C508.108 918.114 503.576 925.228 501.315 933.329C498.801 942.329 497.418 951.971 496.929 961.667C496.441 971.302 496.833 980.987 497.849 990.122C498.349 994.573 499.543 1000.33 502.492 1004.49C504.746 1007.66 507.934 1010.01 512.427 1010.63C519.052 1011.55 527.41 1008.39 535.958 1002.92C551.694 992.864 568.528 975.288 576.112 968.046C581.533 962.872 586.778 957.513 591.752 951.95C596.791 946.323 601.548 940.489 605.93 934.438C607.595 932.142 609.168 928.808 610.872 925.63C611.325 925.317 611.714 924.896 612.006 924.386C612.894 922.821 613.871 921.184 614.93 919.479L615.276 919.158C615.979 918.549 616.41 917.739 616.556 916.887C629.408 896.736 651.502 868.488 666.638 842.803C675.382 827.969 681.797 813.916 683.173 802.637C684.379 792.789 679.443 784.387 672.444 776.571C663.996 767.147 652.282 758.699 649.005 748.223C647.782 744.307 647.95 740.093 650.214 735.386C653.374 728.807 659.938 721.746 667.897 714.65C685.003 699.403 708.541 684.273 721.652 674.353C731.993 666.522 742.206 658.524 752.183 650.294C762.228 642.01 772.034 633.492 781.512 624.684C792.274 614.675 801.456 604.098 809.886 593.133C822.616 576.57 833.613 559.122 845.804 541.446C848.397 537.688 853.546 531.394 859.276 528.905C862.122 527.668 865.149 527.572 867.856 530.153C873.554 535.584 872.819 545.112 870.237 555.154C866.212 570.815 856.837 587.728 852.18 595.615C839.24 617.542 822.195 638.038 803.11 656.919C784.286 675.54 763.476 692.592 742.627 707.886C731.908 715.748 713.704 719.938 701.438 726.795C697.355 729.078 693.874 731.649 691.336 734.622C683.594 743.683 684.778 754.762 690.933 762.326C696.584 769.279 706.533 773.28 717.627 769.65C725.828 766.965 734.25 762.283 742.577 756.574C760.427 744.336 777.882 727.33 791.803 716.287L837.368 679.334C841.401 675.843 846.15 669.917 851.085 665.442L851.606 664.989L851.674 664.942L855.275 662.165C855.81 661.822 856.352 661.519 856.894 661.266C857.757 660.859 858.399 660.178 858.766 659.372C875.932 645.448 890.42 630.208 903.25 613.969C925.487 585.82 942.724 554.665 960.336 522.155L1019 416.681C1024.9 405.72 1034.9 394.195 1041.11 382.125C1044.14 376.241 1046.3 370.225 1046.89 364.103C1047.52 357.542 1045.23 353.241 1041.46 350.214C1034.9 344.954 1022.27 344.441 1013.19 341.813C1008.62 340.493 1005.12 338.489 1006.45 332.966C1008.12 325.998 1014.17 309.399 1020.36 294.715C1024.72 284.378 1029.12 274.992 1032.13 270.753C1037.82 262.733 1054.1 257.691 1062.6 250.356C1065.95 247.464 1068.27 244.237 1069.1 240.65C1069.44 239.216 1069.59 237.687 1069.61 236.096C1069.67 231.35 1068.34 225.948 1068.73 221.441C1069.11 216.944 1070.04 211.467 1069.74 206.328C1069.5 202.253 1068.51 198.384 1066.27 195.142C1064.98 193.285 1063.21 192.147 1061.17 191.545C1057.96 190.603 1053.86 191.227 1050.79 191.751C1028.29 195.588 1006.41 196.209 984.804 193.923C963.181 191.634 941.832 186.435 920.405 178.64C859.665 156.546 809.426 114.579 753.103 84.6263C728.688 71.6412 703.149 60.8852 675.186 54.8376C654.026 50.2604 630.549 47.0544 607.05 46.3234C583.44 45.5885 559.802 47.3553 538.432 52.7023C536.318 53.2322 532.738 54.8315 528.762 56.8708C522.928 59.8611 516.124 63.9686 512.583 65.9851C512.533 65.1193 512.195 64.2656 511.56 63.581C500.538 51.6843 486.503 42.095 471.084 34.2655C448.994 23.0513 424.054 15.4428 401.279 9.67579C308.36 -13.8527 222.648 7.2421 156.734 54.4086C87.2665 104.121 39.8141 182.837 29.1558 268.845C17.9765 359.061 50.9473 445.989 106.403 524.651C183.92 634.608 305.372 728.414 410.147 792.428C432.537 806.107 455.031 820.092 478.373 832.644C493.92 841.006 509.845 848.733 526.362 855.319C527.086 855.608 527.845 855.665 528.555 855.519ZM850.736 655.867C868.829 641.636 883.905 625.946 897.163 609.162C919.129 581.359 936.12 550.571 953.518 518.461L1012.17 413.008C1018.05 402.083 1028.02 390.604 1034.22 378.573C1036.78 373.602 1038.67 368.539 1039.17 363.365C1039.88 356.001 1033.89 354.079 1027.38 352.61C1018.69 350.652 1008.71 349.732 1003.4 345.735C999.378 342.715 997.185 338.3 998.907 331.151C1000.63 323.969 1006.83 306.842 1013.22 291.702C1017.85 280.712 1022.61 270.77 1025.81 266.267C1031.78 257.844 1048.61 252.185 1057.53 244.487C1059.51 242.779 1061.06 240.999 1061.56 238.885L1061 220.781C1061.36 216.612 1062.27 211.542 1061.99 206.778C1061.84 204.164 1061.33 201.643 1059.89 199.561C1059.37 198.808 1058.42 198.812 1057.5 198.783C1055.65 198.726 1053.69 199.125 1052.09 199.396C1028.87 203.355 1006.29 203.996 983.988 201.636C961.751 199.282 939.789 193.944 917.756 185.928C856.673 163.71 806.102 121.597 749.462 91.4727C725.671 78.821 700.796 68.3104 673.549 62.4174C652.821 57.9341 629.828 54.7908 606.807 54.0745C583.929 53.3627 561.025 55.0444 540.315 60.2255C538.553 60.6666 535.612 62.0744 532.299 63.7718C529.029 65.4491 525.449 67.3733 522.183 69.1484C522.25 69.3648 522.297 69.5912 522.325 69.8251C522.554 71.8046 521.245 73.6103 519.348 74.0464C519.105 74.2557 517.939 75.2927 517.173 76.2151C513.938 80.1012 509.791 86.9583 505.601 94.5393C497.183 109.78 488.664 127.933 487.148 131.76C475.021 162.447 470.364 199.272 470.949 236.299C471.469 269.316 476.169 302.496 483.529 331.679C484.007 332.178 484.356 332.809 484.513 333.533C503.943 424.034 560.715 506.298 588.097 594.246C600.15 632.953 606.565 672.741 601.89 714.761C598.684 743.541 600.036 766.358 593.257 788.285C591.431 794.197 589.028 800.049 585.797 805.929C588.211 805.062 590.633 804.602 592.965 804.684C598.032 804.855 602.903 807.255 606.697 813.574C610.113 819.261 610.255 825.894 608.544 832.59C606.372 841.091 601.18 849.699 597.504 855.965C592.102 865.172 585.394 876.286 577.453 885.925C571.972 892.579 565.903 898.526 559.296 902.756C556.493 904.553 553.601 905.772 550.617 906.692C546.527 907.947 542.255 908.611 537.812 909.531C530.662 911.01 524.426 914.12 519.494 918.445C514.356 922.953 510.637 928.779 508.782 935.419C506.418 943.877 505.134 952.945 504.671 962.059C504.207 971.27 504.585 980.53 505.559 989.263C505.873 992.091 506.454 995.642 507.962 998.577C509.071 1000.74 510.733 1002.56 513.493 1002.95C520.246 1003.88 528.951 998.773 537.73 992.269C551.141 982.331 564.335 968.57 570.76 962.437C576.031 957.402 581.137 952.189 585.972 946.779C590.832 941.349 595.421 935.725 599.651 929.888C601.744 926.996 603.651 922.357 605.934 918.627C606.811 917.194 607.742 915.874 608.736 914.762C621.406 894.493 644.366 865.318 659.96 838.866C668.068 825.109 674.198 812.158 675.475 801.696C676.644 792.125 669.719 784.644 662.356 777.202C653.891 768.648 644.641 760.243 641.606 750.537C639.841 744.896 639.962 738.812 643.225 732.023C646.734 724.717 653.891 716.747 662.737 708.859C680 693.473 703.737 678.182 716.97 668.166C727.229 660.403 737.353 652.473 747.248 644.31C757.172 636.123 766.867 627.708 776.231 619.004C786.665 609.301 795.565 599.038 803.734 588.405C816.386 571.949 827.305 554.608 839.422 537.043C842.613 532.418 849.131 524.858 856.185 521.795C861.844 519.331 867.823 519.406 873.208 524.541C879.177 530.232 880.75 539.136 879.334 549.224C876.77 567.531 864.536 589.935 858.859 599.555C845.59 622.038 828.136 643.069 808.566 662.432C789.471 681.32 768.365 698.625 747.212 714.14C736.272 722.167 717.744 726.564 705.221 733.563C702.012 735.361 699.23 737.322 697.233 739.657C692.266 745.473 693.001 752.58 696.948 757.433C700.806 762.179 707.639 764.757 715.212 762.279C725.15 759.027 735.395 752.534 745.387 744.985C760.534 733.546 775.058 719.671 786.982 710.214L832.293 673.468C836.287 670.013 840.983 664.133 845.876 659.697C847.477 658.242 849.106 656.937 850.736 655.867ZM507.067 69.7246C506.628 69.521 506.222 69.2289 505.869 68.8513C495.45 57.6043 482.153 48.5824 467.572 41.1804C445.995 30.2265 421.622 22.827 399.375 17.1933C308.899 -5.7169 225.43 14.7874 161.248 60.7155C93.5135 109.188 47.2442 185.935 36.8519 269.797C25.9062 358.13 58.4445 443.165 112.741 520.183C189.657 629.287 310.229 722.295 414.191 785.81C436.46 799.417 458.828 813.328 482.046 825.815C495.086 832.826 508.394 839.387 522.108 845.185C523.481 843.99 525.556 843.901 527.039 845.067C527.817 845.681 528.733 846.43 529.732 847.139C530.541 847.046 531.379 847.207 532.114 847.642C532.484 847.56 533.722 847.26 534.556 846.879C537.858 845.385 541.962 842.45 545.96 839.276C553.177 833.543 559.998 826.96 561.257 825.666C574.579 811.973 581.779 799.161 585.847 785.992C592.494 764.501 591.043 742.118 594.181 713.901C598.738 672.983 592.43 634.244 580.695 596.549C554.225 511.543 500.442 431.8 479.164 344.862C479 344.587 478.876 344.291 478.783 343.974C469.708 311.867 463.788 274.04 463.197 236.421C462.594 198.337 467.461 160.472 479.938 128.91C481.7 124.457 492.704 101.047 502.324 84.612C504.575 80.768 506.871 77.3512 509.032 74.5467C507.884 73.9968 507.031 72.8918 506.86 71.5357C506.782 70.902 506.86 70.2848 507.067 69.7246Z" fill="#D92626"/>
<path fill-rule="evenodd" clip-rule="evenodd" d="M223.231 716.406C220.499 696.115 216.32 660.744 210.201 638.452C206.728 625.798 201.797 617.265 197.179 615.65C187.205 612.164 172.04 610.475 154.97 609.868C121.232 608.678 79.8947 611.584 58.0461 611.743L10.896 611.937L-2.64211 611.477C-4.21108 610.669 -6.18585 610.919 -7.507 612.226C-9.77986 614.477 -9.08274 616.439 -7.88319 617.96C-7.35509 618.631 -5.29832 619.555 -4.79624 619.665L10.896 620.33L58.1063 620.132C79.8747 619.977 121.06 617.068 154.674 618.255C170.735 618.822 185.023 620.288 194.408 623.57C195.938 624.105 196.926 626.355 198.231 629.284C200.673 634.745 202.824 642.645 204.76 651.65C211.025 680.766 214.876 721.105 217.055 731.372C217.194 732.027 219.205 749.134 220.375 755.801C221.248 760.779 225.495 761.927 225.93 761.849C226.462 761.752 229.4 759.978 229.931 755.561C230.758 748.673 231.5 731.005 231.507 730.295C231.789 687.359 232.68 644.231 234.431 601.132C236.182 558.069 238.796 515.032 242.522 472.247L248.905 400.153C249.051 398.36 249.636 393.888 250.388 388.874C250.873 391.647 251.201 393.638 251.23 393.843C255.755 429.852 258.105 515.388 262.127 570.392C263.603 590.618 265.333 606.781 267.437 615.054C267.747 616.276 272.96 621.05 275.528 615.443C275.806 614.83 276.33 613.494 277.011 611.639C280.049 603.373 286.567 584.097 288.825 575.516L302.571 518.414C302.838 526.771 302.799 535.122 302.624 543.469C302.197 563.783 300.952 584.084 301.148 604.417C301.326 623.239 306.864 629.709 316.289 632.037C325.474 634.307 339.984 631.547 360.241 632.764L404.6 635.167L475.065 638.828C477.372 639.029 479.408 637.317 479.608 635.011C479.808 632.702 478.096 630.669 475.789 630.468L404.928 626.784L360.744 624.387C341.182 623.213 327.172 626.083 318.3 623.891C311.888 622.305 309.66 617.142 309.535 604.339C309.342 584.09 310.587 563.874 311.011 543.644C311.197 534.882 311.232 526.116 310.936 517.344C310.847 514.759 311.689 504.644 310.462 498.762C309.76 495.399 308.194 493.099 306.472 492.104C306.155 491.922 301.173 491.468 299.736 496.161C298.431 500.422 295.643 511.289 295.478 512.035L280.709 573.382C279.25 578.937 275.963 589.065 273.039 597.629C272.104 589.908 271.27 580.422 270.493 569.779C266.463 514.639 264.092 428.892 259.553 392.795C259.474 392.179 256.736 375.854 255.202 369.514C254.382 366.122 252.549 364.487 252.139 364.29C250.756 363.625 248.21 363.106 246.448 366.154C246.124 366.718 245.617 368.097 245.157 370.091C243.485 377.333 240.882 395.312 240.543 399.469L234.16 471.518C230.423 514.432 227.806 557.598 226.048 600.791C224.479 639.36 223.602 677.951 223.231 716.406ZM-0.571424 613.903C-0.0907488 615.362 -0.436989 617.035 -1.60231 618.187C0.016943 616.584 0.0148001 615.135 -0.571424 613.903Z" fill="#D92626"/>
</svg>
