<svg width="992" height="929" viewBox="0 0 992 929" fill="none" xmlns="http://www.w3.org/2000/svg">
<path fill-rule="evenodd" clip-rule="evenodd" d="M544.768 742.88C544.768 742.88 574.847 736.874 567.77 755.999C560.725 775.128 542.966 808.303 542.966 808.303L514.099 830.393L486.74 840.77L472.585 862.474L471.504 891.547C471.504 891.547 472.847 919.703 475.141 917.521C477.402 915.339 497.618 920.889 497.618 920.889L527.042 899.319L553.811 866.118L574.192 840.223L597.357 799.174L629.729 747.706L633.53 732.113L628.648 717.28L618.884 703.581L607.252 690.383L604.532 674.377L627.468 647.587L669.179 614.74L689.297 602.069L710.267 580.562L742.509 553.956L766.526 523.124L787.627 493.386L805.517 479.985L816.985 493.035L810.497 518.897L787.332 563.973L764.003 592.397L742.279 614.183L714.724 634.091L689.854 654.376L665.837 665.179L646.735 679.357L647.718 696.077L663.38 702.552L693.491 688.905L780.844 616.876L824.062 577.869L877.47 496.322L924.751 412.337L956.534 363.224L969.214 329.869L960.4 317.844L940.315 313.584L928.093 307.356L953.945 248.99L973.441 232.414L988.251 220.776L991.593 204.412L988.447 185.33L980.485 176.66L943.198 180.493L903.552 178.832L840.511 160.176L780.32 124.812L736.971 100.804L705.811 81.4069L650.372 61.4389L607.023 44.4578L567.343 46.9552L516.688 51.3579L489.886 59.2878L459.544 110.663L442.539 167.699L438.345 226.503L450.108 294.397L466.098 350.868L482.284 397.015L505.023 442.845L529.073 491.371L545.882 543.226L557.71 590.595L559.185 630.451L558.956 675.232L553.517 718.04L544.768 742.88Z" fill="white"/>
<path fill-rule="evenodd" clip-rule="evenodd" d="M493.945 786.115C495.672 786.999 497.478 787.537 499.211 787.537C503.208 787.537 508.844 784.221 514.591 779.1C524.162 770.567 534.745 757.333 539.26 753.343C542.694 750.305 546.724 747.523 550.686 746.724C554.028 746.049 557.196 747.173 559.64 751.239C561.8 754.833 561.623 759.05 560.541 763.284C558.713 770.44 554.251 777.645 551.154 782.92C546.361 791.089 540.423 800.971 533.379 809.522C528.831 815.043 523.828 820.011 518.349 823.52C516.341 824.808 514.263 825.666 512.124 826.325C508.575 827.416 504.863 827.966 501.006 828.766C493.162 830.394 486.334 833.831 480.921 838.579C475.158 843.631 470.993 850.168 468.916 857.613C466.606 865.883 465.334 874.742 464.886 883.651C464.437 892.505 464.797 901.404 465.731 909.798C466.19 913.888 467.287 919.176 469.997 923C472.068 925.916 474.997 928.069 479.125 928.642C485.213 929.484 492.894 926.581 500.748 921.558C515.207 912.318 530.676 896.168 537.645 889.513C542.625 884.759 547.445 879.834 552.016 874.723C556.646 869.552 561.017 864.192 565.044 858.632C566.574 856.522 568.019 853.458 569.585 850.538C570.001 850.25 570.358 849.864 570.627 849.395C571.443 847.957 572.34 846.453 573.314 844.886L573.631 844.592C574.277 844.031 574.673 843.287 574.808 842.504C586.616 823.989 606.918 798.032 620.827 774.431C628.861 760.8 634.756 747.887 636.021 737.523C637.128 728.473 632.593 720.754 626.161 713.572C618.399 704.912 607.636 697.149 604.624 687.523C603.501 683.925 603.655 680.052 605.735 675.727C608.638 669.682 614.67 663.194 621.984 656.674C637.701 642.663 659.33 628.761 671.378 619.646C680.88 612.45 690.264 605.101 699.432 597.539C708.662 589.927 717.672 582.099 726.382 574.006C736.27 564.809 744.707 555.091 752.453 545.015C764.151 529.796 774.255 513.763 785.458 497.522C787.84 494.068 792.571 488.285 797.837 485.998C800.452 484.861 803.233 484.772 805.72 487.145C810.956 492.135 810.281 500.89 807.909 510.117C804.21 524.507 795.596 540.048 791.317 547.296C779.426 567.443 763.764 586.277 746.228 603.627C728.931 620.737 709.809 636.405 690.651 650.458C680.801 657.683 664.074 661.533 652.803 667.834C649.051 669.931 645.853 672.293 643.521 675.026C636.407 683.352 637.495 693.532 643.15 700.482C648.344 706.871 657.485 710.547 667.679 707.212C675.215 704.745 682.954 700.442 690.605 695.197C707.007 683.951 723.046 668.326 735.838 658.178L777.706 624.223C781.411 621.015 785.776 615.57 790.311 611.457L790.789 611.041L790.851 610.999L794.161 608.446C794.652 608.132 795.15 607.853 795.648 607.621C796.441 607.247 797.031 606.621 797.368 605.881C813.142 593.086 826.454 579.082 838.243 564.16C858.676 538.295 874.515 509.668 890.698 479.795L944.607 382.878C950.023 372.806 959.211 362.216 964.922 351.125C967.707 345.718 969.693 340.191 970.23 334.565C970.807 328.536 968.706 324.584 965.24 321.803C959.211 316.97 947.609 316.498 939.266 314.083C935.066 312.871 931.845 311.029 933.067 305.954C934.607 299.552 940.167 284.299 945.856 270.806C949.863 261.307 953.906 252.684 956.668 248.788C961.901 241.419 976.852 236.786 984.663 230.046C987.746 227.389 989.873 224.423 990.643 221.127C990.951 219.81 991.092 218.404 991.108 216.943C991.161 212.582 989.942 207.618 990.296 203.476C990.65 199.344 991.498 194.312 991.223 189.59C991.007 185.845 990.099 182.29 988.035 179.311C986.852 177.604 985.23 176.559 983.349 176.005C980.404 175.14 976.636 175.714 973.811 176.195C953.143 179.721 933.038 180.291 913.182 178.191C893.313 176.087 873.696 171.31 854.007 164.148C798.194 143.846 752.03 105.284 700.277 77.7609C677.843 65.8293 654.376 55.9459 628.681 50.3888C609.238 46.183 587.665 43.2371 566.072 42.5654C544.378 41.8901 522.658 43.5136 503.021 48.4268C501.078 48.9137 497.789 50.3833 494.135 52.2571C488.775 55.0049 482.523 58.7791 479.27 60.632C479.224 59.8365 478.913 59.0521 478.329 58.423C468.201 47.4914 455.305 38.68 441.137 31.4857C420.839 21.1812 397.922 14.19 376.995 8.89084C291.614 -12.7289 212.856 6.65458 152.288 49.9947C88.4566 95.6739 44.8537 168.004 35.06 247.035C24.7877 329.932 55.0838 409.808 106.04 482.089C177.269 583.125 288.869 669.322 385.144 728.143C405.717 740.711 426.386 753.562 447.834 765.096C462.12 772.779 476.753 779.879 491.93 785.931C492.595 786.197 493.293 786.249 493.945 786.115ZM789.989 602.66C806.615 589.583 820.468 575.166 832.65 559.743C852.834 534.196 868.447 505.906 884.433 476.401L938.329 379.503C943.729 369.464 952.894 358.916 958.588 347.861C960.941 343.294 962.681 338.641 963.136 333.887C963.785 327.121 958.287 325.354 952.307 324.005C944.322 322.206 935.151 321.36 930.266 317.687C926.573 314.912 924.558 310.856 926.141 304.286C927.726 297.687 933.424 281.95 939.289 268.038C943.549 257.939 947.92 248.804 950.859 244.666C956.35 236.927 971.809 231.727 980.01 224.653C981.829 223.083 983.251 221.448 983.706 219.505L983.195 202.87C983.523 199.04 984.365 194.38 984.109 190.003C983.972 187.601 983.503 185.285 982.176 183.371C981.698 182.68 980.823 182.683 979.978 182.657C978.281 182.604 976.475 182.971 975.01 183.22C953.677 186.857 932.926 187.447 912.431 185.278C891.999 183.116 871.818 178.211 851.573 170.845C795.445 150.429 748.977 111.732 696.932 84.0519C675.071 72.4267 652.213 62.7687 627.177 57.3538C608.13 53.2342 587.003 50.3459 565.85 49.6877C544.827 49.0337 523.782 50.5789 504.751 55.3397C503.133 55.745 500.43 57.0386 497.386 58.5983C494.381 60.1396 491.091 61.9076 488.09 63.5387C488.152 63.7376 488.195 63.9456 488.221 64.1606C488.431 65.9794 487.228 67.6386 485.485 68.0394C485.262 68.2317 484.191 69.1845 483.487 70.0322C480.515 73.603 476.704 79.9038 472.854 86.8698C465.118 100.874 457.29 117.555 455.898 121.071C444.754 149.269 440.475 183.106 441.012 217.13C441.491 247.467 445.809 277.956 452.572 304.771C453.011 305.23 453.332 305.81 453.477 306.475C471.331 389.634 523.497 465.224 548.657 546.038C559.732 581.605 565.627 618.165 561.331 656.776C558.385 683.221 559.627 704.188 553.399 724.335C551.721 729.768 549.513 735.144 546.544 740.547C548.762 739.751 550.987 739.329 553.13 739.404C557.786 739.561 562.262 741.766 565.748 747.572C568.887 752.799 569.018 758.893 567.445 765.046C565.45 772.858 560.679 780.767 557.301 786.524C552.337 794.984 546.174 805.197 538.877 814.054C533.841 820.168 528.264 825.633 522.193 829.519C519.617 831.171 516.96 832.291 514.217 833.137C510.459 834.29 506.534 834.899 502.451 835.745C495.882 837.105 490.151 839.962 485.62 843.936C480.898 848.078 477.481 853.432 475.777 859.533C473.604 867.305 472.425 875.637 471.999 884.012C471.573 892.475 471.92 900.984 472.815 909.009C473.103 911.607 473.637 914.871 475.023 917.567C476.042 919.556 477.569 921.23 480.105 921.584C486.311 922.443 494.309 917.747 502.376 911.771C514.699 902.639 526.822 889.995 532.727 884.359C537.57 879.733 542.262 874.942 546.705 869.972C551.171 864.982 555.387 859.814 559.273 854.451C561.197 851.793 562.95 847.531 565.047 844.103C565.853 842.786 566.708 841.574 567.622 840.552C579.264 821.927 600.362 795.119 614.69 770.813C622.141 758.172 627.773 746.272 628.946 736.658C630.021 727.864 623.658 720.99 616.892 714.151C609.113 706.291 600.614 698.568 597.826 689.649C596.204 684.466 596.315 678.876 599.313 672.637C602.537 665.924 609.113 658.601 617.242 651.353C633.104 637.215 654.916 623.165 667.076 613.961C676.502 606.828 685.805 599.541 694.897 592.041C704.016 584.518 712.925 576.785 721.529 568.787C731.116 559.871 739.294 550.441 746.801 540.671C758.426 525.549 768.459 509.615 779.593 493.475C782.526 489.225 788.515 482.279 794.996 479.464C800.196 477.2 805.691 477.269 810.638 481.987C816.123 487.217 817.568 495.398 816.268 504.668C813.912 521.49 802.67 542.076 797.453 550.916C785.261 571.575 769.223 590.9 751.241 608.692C733.695 626.048 714.301 641.949 694.864 656.206C684.812 663.581 667.787 667.621 656.279 674.053C653.33 675.704 650.775 677.506 648.94 679.653C644.376 684.997 645.051 691.527 648.678 695.986C652.223 700.347 658.501 702.716 665.46 700.439C674.592 697.451 684.006 691.484 693.187 684.548C707.106 674.037 720.451 661.287 731.408 652.598L773.043 618.833C776.713 615.658 781.028 610.255 785.523 606.179C786.995 604.842 788.492 603.643 789.989 602.66ZM474.201 64.0682C473.798 63.8811 473.424 63.6127 473.1 63.2657C463.526 52.9311 451.307 44.6411 437.91 37.8396C418.083 27.7743 395.688 20.9751 375.245 15.7985C292.109 -5.25312 215.411 13.5878 156.436 55.7899C94.1967 100.33 51.6811 170.851 42.1318 247.91C32.0741 329.077 61.9727 407.213 111.864 477.983C182.541 578.236 293.331 663.699 388.859 722.061C409.322 734.565 429.875 747.346 451.209 758.821C463.192 765.263 475.42 771.292 488.021 776.619C489.283 775.522 491.19 775.44 492.553 776.511C493.267 777.075 494.109 777.763 495.027 778.415C495.77 778.33 496.54 778.477 497.215 778.877C497.556 778.801 498.693 778.526 499.46 778.176C502.494 776.803 506.265 774.106 509.938 771.19C516.57 765.921 522.838 759.873 523.995 758.683C536.236 746.101 542.851 734.329 546.59 722.228C552.697 702.48 551.364 681.913 554.247 655.986C558.435 618.387 552.638 582.791 541.855 548.154C517.533 470.044 468.113 396.77 448.562 316.885C448.411 316.632 448.296 316.36 448.211 316.069C439.872 286.566 434.433 251.809 433.889 217.241C433.335 182.247 437.808 147.453 449.273 118.453C450.891 114.36 461.003 92.8495 469.843 77.7478C471.91 74.2157 474.021 71.0761 476.006 68.4991C474.951 67.9938 474.168 66.9784 474.011 65.7323C473.939 65.1501 474.011 64.5829 474.201 64.0682Z" fill="white"/>
<path fill-rule="evenodd" clip-rule="evenodd" d="M213.391 658.287C210.881 639.642 207.041 607.141 201.419 586.657C198.227 575.03 193.696 567.19 189.453 565.706C180.288 562.503 166.353 560.95 150.668 560.393C119.667 559.299 81.6832 561.969 61.607 562.115L18.2819 562.294L5.84211 561.871C4.40042 561.129 2.58585 561.358 1.37189 562.559C-0.716598 564.627 -0.0760266 566.43 1.02621 567.828C1.51147 568.445 3.40139 569.294 3.86273 569.395L18.2819 570.006L61.6624 569.824C81.6648 569.681 119.509 567.008 150.396 568.099C165.154 568.62 178.283 569.967 186.907 572.983C188.312 573.475 189.22 575.543 190.419 578.233C192.664 583.251 194.64 590.51 196.419 598.785C202.176 625.539 205.714 662.605 207.716 672.04C207.844 672.642 209.692 688.36 210.767 694.487C211.57 699.061 215.472 700.116 215.872 700.044C216.36 699.955 219.06 698.325 219.548 694.266C220.308 687.937 220.99 671.703 220.996 671.05C221.255 631.597 222.074 591.968 223.683 552.365C225.292 512.795 227.694 473.25 231.118 433.936L236.983 367.691C237.117 366.043 237.654 361.934 238.346 357.327C238.791 359.875 239.093 361.704 239.119 361.892C243.277 394.98 245.436 473.577 249.132 524.119C250.489 542.704 252.078 557.556 254.011 565.158C254.296 566.281 259.086 570.668 261.445 565.515C261.701 564.952 262.183 563.724 262.808 562.02C265.6 554.424 271.59 536.712 273.664 528.827L286.295 476.358C286.541 484.037 286.505 491.71 286.344 499.38C285.951 518.046 284.807 536.7 284.988 555.384C285.151 572.679 290.24 578.624 298.9 580.763C307.34 582.849 320.673 580.313 339.287 581.431L380.047 583.639L444.796 587.003C446.915 587.188 448.786 585.614 448.97 583.496C449.153 581.374 447.581 579.506 445.461 579.321L380.349 575.936L339.749 573.734C321.774 572.655 308.9 575.292 300.748 573.278C294.857 571.821 292.809 567.077 292.694 555.312C292.517 536.706 293.661 518.129 294.051 499.541C294.221 491.489 294.254 483.435 293.982 475.374C293.9 472.999 294.673 463.705 293.546 458.3C292.9 455.21 291.462 453.097 289.879 452.182C289.588 452.015 285.01 451.598 283.69 455.91C282.491 459.825 279.929 469.811 279.778 470.496L266.206 526.866C264.866 531.971 261.845 541.277 259.158 549.147C258.3 542.052 257.533 533.336 256.819 523.556C253.116 472.889 250.937 394.098 246.766 360.93C246.694 360.363 244.178 345.363 242.769 339.537C242.015 336.42 240.331 334.918 239.954 334.737C238.683 334.126 236.344 333.649 234.725 336.45C234.427 336.968 233.962 338.235 233.539 340.068C232.002 346.722 229.61 363.242 229.299 367.062L223.434 433.266C220 472.698 217.595 512.363 215.98 552.052C214.538 587.492 213.732 622.952 213.391 658.287ZM7.74481 564.1C8.18649 565.441 7.86834 566.978 6.79756 568.036C8.28545 566.564 8.28348 565.232 7.74481 564.1Z" fill="white"/>
</svg>
