<svg id="rubbing-alcohol" enable-background="new 0 0 300 300" height="512" viewBox="0 0 300 300" width="512" xmlns="http://www.w3.org/2000/svg"><g><circle cx="134" cy="152.943" fill="#edebdc" r="92"/><g fill="#4c241d"><path d="m58.605 203.333c0 2.362-1.914 4.277-4.276 4.277s-4.276-1.915-4.276-4.277 1.914-4.276 4.276-4.276 4.276 1.915 4.276 4.276z"/><path d="m210.605 39.333c0 2.362-1.914 4.277-4.276 4.277s-4.276-1.915-4.276-4.277 1.914-4.276 4.276-4.276 4.276 1.915 4.276 4.276z"/><path d="m60 112.943c-7.719 0-14-6.281-14-14s6.281-14 14-14 14 6.281 14 14-6.281 14-14 14zm0-20c-3.309 0-6 2.691-6 6s2.691 6 6 6 6-2.691 6-6-2.691-6-6-6z"/><path d="m238 84.943c-2.209 0-4-1.791-4-4v-8c0-2.209 1.791-4 4-4s4 1.791 4 4v8c0 2.209-1.791 4-4 4z"/><path d="m238 108.943c-2.209 0-4-1.791-4-4v-8c0-2.209 1.791-4 4-4s4 1.791 4 4v8c0 2.209-1.791 4-4 4z"/><path d="m230 92.943h-8c-2.209 0-4-1.791-4-4s1.791-4 4-4h8c2.209 0 4 1.791 4 4s-1.791 4-4 4z"/><path d="m254 92.943h-8c-2.209 0-4-1.791-4-4s1.791-4 4-4h8c2.209 0 4 1.791 4 4s-1.791 4-4 4z"/></g><g><path d="m179.329 260.943h-62.658c-5.894 0-10.671-4.778-10.671-10.671v-149.329h84v149.329c0 5.893-4.778 10.671-10.671 10.671z" fill="#fff"/><path d="m179.328 264.943h-62.656c-8.09 0-14.672-6.582-14.672-14.672v-149.328c0-2.209 1.791-4 4-4h84c2.209 0 4 1.791 4 4v149.328c0 8.09-6.582 14.672-14.672 14.672zm-69.328-160v145.328c0 3.68 2.992 6.672 6.672 6.672h62.656c3.68 0 6.672-2.992 6.672-6.672v-145.328z" fill="#4c241d"/></g><g><path d="m130 52.943h36v20h-36z" fill="#b5a19c"/><path d="m166 76.943h-36c-2.209 0-4-1.791-4-4v-20c0-2.209 1.791-4 4-4h36c2.209 0 4 1.791 4 4v20c0 2.209-1.791 4-4 4zm-32-8h28v-12h-28z" fill="#4c241d"/></g><g><path d="m130 72.943h36l24 28h-84z" fill="#fff"/><path d="m190 104.943h-84c-1.562 0-2.98-.91-3.635-2.328-.652-1.42-.418-3.09.598-4.275l24-28c.76-.887 1.869-1.396 3.037-1.396h36c1.168 0 2.277.51 3.037 1.396l24 28c1.016 1.186 1.25 2.855.598 4.275-.655 1.418-2.073 2.328-3.635 2.328zm-75.303-8h66.605l-17.143-20h-32.32z" fill="#4c241d"/></g><g><path d="m122 116.943h52v120h-52z" fill="#f53e28"/><path d="m174 240.943h-52c-2.209 0-4-1.791-4-4v-120c0-2.209 1.791-4 4-4h52c2.209 0 4 1.791 4 4v120c0 2.209-1.791 4-4 4zm-48-8h44v-112h-44z" fill="#4c241d"/></g><g><path d="m122 116.943h52v24h-52z" fill="#fff"/><path d="m174 144.943h-52c-2.209 0-4-1.791-4-4v-24c0-2.209 1.791-4 4-4h52c2.209 0 4 1.791 4 4v24c0 2.209-1.791 4-4 4zm-48-8h44v-16h-44z" fill="#4c241d"/></g><g><path d="m174 180.943h-16v-16h-20v16h-16v20h16v16h20v-16h16z" fill="#9dc1e4"/><path d="m158 220.943h-20c-2.209 0-4-1.791-4-4v-12h-12c-2.209 0-4-1.791-4-4v-20c0-2.209 1.791-4 4-4h12v-12c0-2.209 1.791-4 4-4h20c2.209 0 4 1.791 4 4v12h12c2.209 0 4 1.791 4 4v20c0 2.209-1.791 4-4 4h-12v12c0 2.209-1.791 4-4 4zm-16-8h12v-12c0-2.209 1.791-4 4-4h12v-12h-12c-2.209 0-4-1.791-4-4v-12h-12v12c0 2.209-1.791 4-4 4h-12v12h12c2.209 0 4 1.791 4 4z" fill="#4c241d"/></g></g></svg>