<svg id="social-distancing" enable-background="new 0 0 300 300" height="512" viewBox="0 0 300 300" width="512" xmlns="http://www.w3.org/2000/svg"><g><circle cx="142" cy="160" fill="#edebdc" r="92"/><g fill="#4c241d"><path d="m62 60c-2.211 0-4-1.791-4-4v-8c0-2.209 1.789-4 4-4s4 1.791 4 4v8c0 2.209-1.789 4-4 4z"/><path d="m62 84c-2.211 0-4-1.791-4-4v-8c0-2.209 1.789-4 4-4s4 1.791 4 4v8c0 2.209-1.789 4-4 4z"/><path d="m54 68h-8c-2.211 0-4-1.791-4-4s1.789-4 4-4h8c2.211 0 4 1.791 4 4s-1.789 4-4 4z"/><path d="m78 68h-8c-2.211 0-4-1.791-4-4s1.789-4 4-4h8c2.211 0 4 1.791 4 4s-1.789 4-4 4z"/></g><g><circle cx="152" cy="98" fill="#fff" r="34"/><path d="m152 136c-20.953 0-38-17.047-38-38s17.047-38 38-38 38 17.047 38 38-17.047 38-38 38zm0-68c-16.543 0-30 13.457-30 30s13.457 30 30 30 30-13.457 30-30-13.457-30-30-30z" fill="#4c241d"/></g><path d="m150 112c-1.086 0-2.133-.443-2.891-1.236l-6.883-7.201c-1.527-1.598-1.469-4.129.125-5.656 1.605-1.527 4.129-1.467 5.656.129l3.344 3.496 8.922-14.146c1.184-1.865 3.656-2.424 5.516-1.248 1.871 1.178 2.43 3.648 1.25 5.518l-11.656 18.48c-.656 1.041-1.758 1.723-2.984 1.846-.133.012-.266.018-.399.018z" fill="#a9ba5a"/><g><circle cx="78" cy="136" fill="#e7d1c4" r="24"/><path d="m78 164c-15.438 0-28-12.561-28-28s12.562-28 28-28 28 12.561 28 28-12.562 28-28 28zm0-48c-11.027 0-20 8.973-20 20s8.973 20 20 20 20-8.973 20-20-8.973-20-20-20z" fill="#4c241d"/></g><g><path d="m106 252h-56v-64c0-15.464 12.536-28 28-28 15.464 0 28 12.536 28 28z" fill="#e7d1c4"/><path d="m106 256h-56c-2.211 0-4-1.791-4-4v-64c0-17.645 14.355-32 32-32s32 14.355 32 32v64c0 2.209-1.789 4-4 4zm-52-8h48v-60c0-13.234-10.766-24-24-24s-24 10.766-24 24z" fill="#4c241d"/></g><g><circle cx="226" cy="136" fill="#fff" r="24"/><path d="m226 164c-15.438 0-28-12.561-28-28s12.562-28 28-28 28 12.561 28 28-12.562 28-28 28zm0-48c-11.027 0-20 8.973-20 20s8.973 20 20 20 20-8.973 20-20-8.973-20-20-20z" fill="#4c241d"/></g><g><path d="m254 252h-56v-64c0-15.464 12.536-28 28-28 15.464 0 28 12.536 28 28z" fill="#fff"/><path d="m254 256h-56c-2.211 0-4-1.791-4-4v-64c0-17.645 14.355-32 32-32s32 14.355 32 32v64c0 2.209-1.789 4-4 4zm-52-8h48v-60c0-13.234-10.766-24-24-24s-24 10.766-24 24z" fill="#4c241d"/></g><path d="m178 212h-52c-2.211 0-4-1.791-4-4s1.789-4 4-4h52c2.211 0 4 1.791 4 4s-1.789 4-4 4z" fill="#4c241d"/><path d="m174 220c-1.023 0-2.047-.391-2.828-1.172-1.562-1.562-1.562-4.094 0-5.656l5.172-5.172-5.172-5.172c-1.562-1.562-1.562-4.094 0-5.656s4.094-1.562 5.656 0l8 8c1.562 1.562 1.562 4.094 0 5.656l-8 8c-.781.781-1.805 1.172-2.828 1.172z" fill="#4c241d"/><path d="m130 220c-1.023 0-2.047-.391-2.828-1.172l-8-8c-1.562-1.562-1.562-4.094 0-5.656l8-8c1.562-1.562 4.094-1.562 5.656 0s1.562 4.094 0 5.656l-5.172 5.172 5.172 5.172c1.562 1.562 1.562 4.094 0 5.656-.781.781-1.805 1.172-2.828 1.172z" fill="#4c241d"/></g></svg>