<svg id="support" enable-background="new 0 0 300 300" height="512" viewBox="0 0 300 300" width="512" xmlns="http://www.w3.org/2000/svg"><g><circle cx="137.975" cy="146.475" fill="#efefd2" r="92"/><g><circle cx="78.475" cy="77.975" fill="#00ccca" r="44.449"/><path d="m78.475 126.424c-26.715 0-48.449-21.734-48.449-48.449s21.734-48.45 48.449-48.45 48.449 21.734 48.449 48.449-21.735 48.45-48.449 48.45zm0-88.899c-22.305 0-40.449 18.145-40.449 40.449s18.145 40.449 40.449 40.449 40.449-18.145 40.449-40.449-18.145-40.449-40.449-40.449z" fill="#4c241d"/></g><g fill="#4c241d"><path d="m75.975 124.475c-2.209 0-4-1.791-4-4v-85c0-2.209 1.791-4 4-4s4 1.791 4 4v85c0 2.209-1.791 4-4 4z"/><path d="m84.707 123.176c-.729 0-1.467-.199-2.131-.617-1.867-1.178-2.428-3.648-1.248-5.518 16.035-25.422 16.023-50.631-.035-77.068-1.148-1.887-.547-4.348 1.342-5.494 1.889-1.145 4.35-.545 5.494 1.342 17.543 28.877 17.531 57.641-.035 85.49-.76 1.205-2.059 1.865-3.387 1.865z"/><path d="m67.242 123.176c-1.328 0-2.627-.66-3.387-1.865-17.566-27.85-17.578-56.613-.035-85.49 1.145-1.887 3.605-2.488 5.494-1.342s2.49 3.607 1.342 5.494c-16.059 26.438-16.07 51.646-.035 77.068 1.18 1.869.619 4.34-1.248 5.518-.664.418-1.402.617-2.131.617z"/><path d="m77.301 85.914c-14.924 0-29.523-4.994-43.697-14.984-1.805-1.273-2.238-3.768-.965-5.574 1.273-1.805 3.766-2.238 5.574-.965 25.736 18.143 51.982 18.107 80.242-.094 1.861-1.191 4.332-.658 5.529 1.197 1.195 1.857.66 4.332-1.197 5.529-15.414 9.928-30.611 14.891-45.486 14.891z"/><path d="m77.309 65.939c-12.512 0-24.795-3.51-36.771-10.533-1.906-1.119-2.545-3.568-1.428-5.475 1.121-1.902 3.564-2.545 5.475-1.428 21.609 12.676 43.475 12.664 66.844-.031 1.941-1.051 4.371-.336 5.424 1.607 1.055 1.939.334 4.369-1.607 5.424-12.808 6.956-25.486 10.436-37.937 10.436z"/><path d="m77.301 105.914c-14.924 0-29.523-4.994-43.697-14.984-1.805-1.273-2.238-3.768-.965-5.574s3.766-2.24 5.574-.965c25.736 18.143 51.982 18.107 80.242-.094 1.861-1.193 4.332-.66 5.529 1.197 1.195 1.857.66 4.332-1.197 5.529-15.414 9.928-30.611 14.891-45.486 14.891z"/><path d="m107.631 192.131c-1.023 0-2.047-.391-2.828-1.172l-11.313-11.313c-1.562-1.562-1.562-4.094 0-5.656s4.094-1.562 5.656 0l11.312 11.312c1.562 1.562 1.562 4.094 0 5.656-.78.782-1.804 1.173-2.827 1.173z"/><path d="m96.318 192.131c-1.023 0-2.047-.391-2.828-1.172-1.562-1.562-1.562-4.094 0-5.656l11.312-11.312c1.562-1.562 4.094-1.562 5.656 0s1.562 4.094 0 5.656l-11.312 11.312c-.781.781-1.804 1.172-2.828 1.172z"/><circle cx="71.975" cy="156.475" r="4.53"/><circle cx="143.975" cy="36.475" r="4.53"/></g><g><path d="m193.975 206.475c12.61 0 23.688-6.495 30.118-16.31l-14.24-6.473c.031-.409.122-.8.122-1.217v-8h-32v8c0 .417.091.808.122 1.217l-14.24 6.473c6.43 9.814 17.508 16.31 30.118 16.31z" fill="#e7d1c4"/><path d="m193.975 210.475c-13.521 0-26.031-6.773-33.463-18.119-.641-.977-.82-2.184-.496-3.305s1.123-2.045 2.188-2.527l11.771-5.352v-6.697c0-2.209 1.791-4 4-4h32c2.209 0 4 1.791 4 4v6.697l11.771 5.352c1.064.482 1.863 1.406 2.188 2.527s.145 2.328-.496 3.305c-7.432 11.345-19.942 18.119-33.463 18.119zm-23.899-18.745c6.033 6.799 14.672 10.744 23.898 10.744s17.865-3.945 23.898-10.744l-9.676-4.398c-1.529-.693-2.463-2.271-2.334-3.945.02-.244.049-.482.082-.723l.016-4.189h-23.986v4c.062.43.092.668.111.912.129 1.674-.805 3.252-2.334 3.945z" fill="#4c241d"/></g><g><path d="m245.975 116.475c-.294 0-.336-2.941-.288-6.3.083-5.822-3.813-10.999-9.466-12.394-27.643-6.821-57.325-5.547-84.266 2.727-3.532 1.084-5.848 4.474-5.744 8.166.104 3.746.133 7.802-.236 7.802-5.644 0-10.196 4.676-9.993 10.365.114 3.199 2.081 6.09 4.734 7.88 3.217 2.171 5.98 2.017 8.432 1.192 3.968 19.359 18.022 35.548 37.427 41.794 5.564 1.791 11.581 1.62 17.141-.182l1.775-.575c19.093-6.188 33.023-22.039 37.174-41.08 2.441.862 5.222 1.012 8.371-.95 2.549-1.588 4.495-4.194 4.862-7.174.748-6.091-3.983-11.271-9.923-11.271z" fill="#e7d1c4"/><path d="m194.729 182.977c-3.195 0-6.35-.488-9.379-1.461-19.201-6.182-33.934-21.713-39.223-41.039-2.605.102-5.174-.768-7.648-2.439-3.914-2.643-6.342-6.773-6.496-11.053-.135-3.842 1.256-7.475 3.918-10.232 1.783-1.846 3.975-3.137 6.379-3.789 0-.979-.016-2.326-.066-4.178-.156-5.529 3.369-10.506 8.568-12.102 28.07-8.619 58.75-9.607 86.398-2.787 7.475 1.846 12.617 8.562 12.508 16.334-.018 1.139-.02 2.037-.016 2.742 2.602.713 4.971 2.17 6.793 4.23 2.656 3.002 3.895 7.021 3.402 11.029-.494 4-3.004 7.77-6.717 10.082-2.418 1.506-4.91 2.252-7.523 2.152-5.443 18.932-20.055 34.178-38.902 40.287l-1.779.576c-3.385 1.097-6.825 1.648-10.217 1.648zm-45.583-51.065c.693 0 1.381.18 1.994.533.994.57 1.693 1.541 1.924 2.664 3.738 18.232 17.049 33.096 34.736 38.791 4.635 1.486 9.715 1.424 14.68-.182l1.779-.576c17.377-5.633 30.596-20.242 34.496-38.125.244-1.121.959-2.084 1.961-2.643s2.199-.658 3.277-.277c1.814.639 3.242.479 4.928-.574 1.68-1.047 2.805-2.643 3.004-4.268.217-1.76-.299-3.447-1.453-4.754-1.141-1.289-2.779-2.027-4.498-2.027-1.07 0-2.137-.449-2.889-1.211-1.311-1.332-1.494-2.527-1.398-9.148.057-4.027-2.586-7.504-6.426-8.453-26.264-6.479-55.434-5.533-82.133 2.67-1.773.545-2.975 2.283-2.92 4.23.229 8.281-.027 9.348-1.32 10.678-.754.775-1.834 1.234-2.914 1.234-1.643 0-3.176.65-4.318 1.834-1.141 1.182-1.736 2.74-1.678 4.391.061 1.703 1.201 3.508 2.975 4.707 1.949 1.312 3.381 1.238 4.918.715.416-.141.846-.209 1.275-.209zm100.618-16.478h.041z" fill="#4c241d"/></g><circle cx="215.975" cy="132.475" fill="#4c241d" r="4"/><circle cx="175.975" cy="132.475" fill="#4c241d" r="4"/><g><path d="m244.199 199.304-20.106-9.139c-6.43 9.815-17.508 16.31-30.118 16.31s-23.688-6.495-30.118-16.31l-20.106 9.139c-13.242 6.019-21.776 19.449-21.776 34.269v32.902h144v-32.902c0-14.82-8.534-28.25-21.776-34.269z" fill="#9dc1e4"/><path d="m265.975 270.475h-144c-2.209 0-4-1.791-4-4v-32.902c0-16.371 9.469-31.25 24.121-37.91l20.105-9.139c1.797-.82 3.918-.201 5.002 1.449 5.949 9.08 15.957 14.502 26.771 14.502s20.822-5.422 26.771-14.502c1.082-1.65 3.205-2.27 5.002-1.449l20.107 9.141-.002-.002c14.652 6.66 24.121 21.539 24.121 37.91v32.902c.002 2.209-1.789 4-3.998 4zm-140-8h136v-28.902c0-13.24-7.627-25.262-19.43-30.625 0-.002 0-.002-.002-.002l-17.119-7.781c-7.564 9.646-19.084 15.311-31.449 15.311s-23.885-5.664-31.449-15.311l-17.119 7.781c-11.805 5.365-19.432 17.387-19.432 30.627z" fill="#4c241d"/></g><g><path d="m245.975 82.475c0-52-100-44-99.78 7.34.025 5.763.146 12.021.087 16.344 10.93.374 21.14-3.243 27.89-10.021 11.638 22.604 44.081 31.871 71.803 10.216 0-8.389 0-20.267 0-23.879z" fill="#ffce56"/><path d="m212.629 122.641c-3.629 0-7.25-.387-10.834-1.174-11.961-2.625-22.156-9.51-28.635-19.184-7.244 5.389-16.805 8.234-27.016 7.873-2.176-.074-3.893-1.875-3.863-4.053.037-2.713.002-6.195-.035-9.836l-.051-6.438c-.066-15.377 8.102-28.613 23-37.273 20.148-11.711 47.967-12.619 66.158-2.152 12.008 6.912 18.621 18.301 18.621 32.07v23.879c0 1.23-.566 2.395-1.537 3.152-11.056 8.638-23.464 13.136-35.808 13.136zm-38.457-30.504c.203 0 .408.016.613.047 1.264.197 2.357.984 2.943 2.121 5.049 9.809 14.447 16.859 25.781 19.348 12.854 2.826 26.441-.475 38.465-9.287v-21.891c0-13.824-7.945-21.299-14.611-25.135-15.604-8.98-40.605-8.059-58.148 2.135-8.715 5.064-19.088 14.436-19.02 30.322l.051 6.391c.021 2.061.041 4.068.049 5.922 8.371-.51 15.893-3.623 21.043-8.795.756-.76 1.779-1.178 2.834-1.178zm71.803 14.217h.039z" fill="#4c241d"/></g><path d="m193.975 270.475c-2.209 0-4-1.791-4-4v-60c0-2.209 1.791-4 4-4s4 1.791 4 4v60c0 2.209-1.791 4-4 4z" fill="#4c241d"/><path d="m229.975 234.475h-16c-2.209 0-4-1.791-4-4s1.791-4 4-4h16c2.209 0 4 1.791 4 4s-1.791 4-4 4z" fill="#4c241d"/><g><path d="m146.002 146.475h-12.055c-2.194 0-3.972-1.778-3.972-3.972v-36.055c0-2.194 1.778-3.972 3.972-3.972h12.055c2.194 0 3.972 1.778 3.972 3.972v36.055c.001 2.193-1.778 3.972-3.972 3.972z" fill="#6b4f5b"/><path d="m146.002 150.475h-12.055c-4.396 0-7.973-3.576-7.973-7.973v-36.055c0-4.396 3.576-7.973 7.973-7.973h12.055c4.396 0 7.973 3.576 7.973 7.973v36.055c0 4.396-3.577 7.973-7.973 7.973zm0-8v4l.002-4zm-.027-36.028-12.027.027.027 36.027 12-.027z" fill="#4c241d"/></g><g><path d="m258.002 146.475h-12.055c-2.194 0-3.972-1.778-3.972-3.972v-36.055c0-2.194 1.778-3.972 3.972-3.972h12.055c2.194 0 3.972 1.778 3.972 3.972v36.055c.001 2.193-1.778 3.972-3.972 3.972z" fill="#6b4f5b"/><path d="m258.002 150.475h-12.055c-4.396 0-7.973-3.576-7.973-7.973v-36.055c0-4.396 3.576-7.973 7.973-7.973h12.055c4.396 0 7.973 3.576 7.973 7.973v36.055c0 4.396-3.577 7.973-7.973 7.973zm0-8v4l.002-4zm-.027-36.028-12.027.027.027 36.027 12-.027z" fill="#4c241d"/></g><path d="m251.975 166.475h-54c-2.209 0-4-1.791-4-4s1.791-4 4-4h50v-12c0-2.209 1.791-4 4-4s4 1.791 4 4v16c0 2.209-1.791 4-4 4z" fill="#4c241d"/></g></svg>